<mxfile host="Electron" agent="Mozilla/5.0 (Macintosh; Intel Mac OS X 10_15_7) AppleWebKit/537.36 (KHTML, like Gecko) draw.io/24.7.17 Chrome/128.0.6613.36 Electron/32.0.1 Safari/537.36" version="24.7.17">
  <diagram name="Page-1" id="pVzsK8SoKpc6QVM1TEOs">
    <mxGraphModel dx="1114" dy="878" grid="1" gridSize="10" guides="1" tooltips="1" connect="1" arrows="1" fold="1" page="1" pageScale="1" pageWidth="850" pageHeight="1100" math="0" shadow="0">
      <root>
        <mxCell id="0" />
        <mxCell id="1" parent="0" />
        <mxCell id="i5078P6cimb0io9gRPc_-3" value="Entrypoint" style="shape=image;aspect=fixed;image=data:image/svg+xml,PD94bWwgdmVyc2lvbj0iMS4wIiBlbmNvZGluZz0iVVRGLTgiIHN0YW5kYWxvbmU9Im5vIj8+CjwhRE9DVFlQRSBzdmcgUFVCTElDICItLy9XM0MvL0RURCBTVkcgMS4xLy9FTiIgImh0dHA6Ly93d3cudzMub3JnL0dyYXBoaWNzL1NWRy8xLjEvRFREL3N2ZzExLmR0ZCI+Cjxzdmcgd2lkdGg9IjEwMCUiIGhlaWdodD0iMTAwJSIgdmlld0JveD0iMCAwIDQwIDQwIiB2ZXJzaW9uPSIxLjEiIHhtbG5zPSJodHRwOi8vd3d3LnczLm9yZy8yMDAwL3N2ZyIgeG1sbnM6eGxpbms9Imh0dHA6Ly93d3cudzMub3JnLzE5OTkveGxpbmsiIHhtbDpzcGFjZT0icHJlc2VydmUiIHhtbG5zOnNlcmlmPSJodHRwOi8vd3d3LnNlcmlmLmNvbS8iIHN0eWxlPSJmaWxsLXJ1bGU6ZXZlbm9kZDtjbGlwLXJ1bGU6ZXZlbm9kZDtzdHJva2UtbGluZWpvaW46cm91bmQ7c3Ryb2tlLW1pdGVybGltaXQ6MjsiPgogICAgPHBhdGggZD0iTTI0LjIyLDAuNDVDMjEuNDM5LC0wLjE1IDE4LjU2MSwtMC4xNSAxNS43OCwwLjQ1QzE1LjU5OSwyLjAxMSAxNS40MzksMy41NzQgMTUuMyw1LjEzOUMxNC40NDQsNS40MSAxMy42MTIsNS43NTQgMTIuODE1LDYuMTY4QzExLjYxLDUuMTYgMTAuMzkxLDQuMTY4IDkuMTYsMy4xOTJDNi43NjksNC43MzQgNC43MzQsNi43NjkgMy4xOTIsOS4xNkM0LjE2OCwxMC4zOTEgNS4xNiwxMS42MSA2LjE2OCwxMi44MTVDNS43NTQsMTMuNjEyIDUuNDEsMTQuNDQ0IDUuMTM5LDE1LjNDMy41NzQsMTUuNDM5IDIuMDExLDE1LjU5OSAwLjQ1LDE1Ljc4Qy0wLjE1LDE4LjU2MSAtMC4xNSwyMS40MzkgMC40NSwyNC4yMkMyLjAxMSwyNC40MDEgMy41NzQsMjQuNTYxIDUuMTM5LDI0LjdDNS40MSwyNS41NTYgNS43NTQsMjYuMzg4IDYuMTY4LDI3LjE4NUM1LjE2LDI4LjM5IDQuMTY4LDI5LjYwOSAzLjE5MiwzMC44NEM0LjczNCwzMy4yMzEgNi43NjksMzUuMjY2IDkuMTYsMzYuODA4QzEwLjM5MSwzNS44MzIgMTEuNjEsMzQuODQgMTIuODE1LDMzLjgzMkMxMy42MTIsMzQuMjQ2IDE0LjQ0NCwzNC41OSAxNS4zLDM0Ljg2MUMxNS40MzksMzYuNDI2IDE1LjU5OSwzNy45ODkgMTUuNzgsMzkuNTVDMTguNTYxLDQwLjE1IDIxLjQzOSw0MC4xNSAyNC4yMiwzOS41NUMyNC40MDEsMzcuOTg5IDI0LjU2MSwzNi40MjYgMjQuNywzNC44NjFDMjUuNTU2LDM0LjU5IDI2LjM4OCwzNC4yNDYgMjcuMTg1LDMzLjgzMkMyOC4zOSwzNC44NCAyOS42MDksMzUuODMyIDMwLjg0LDM2LjgwOEMzMy4yMzEsMzUuMjY2IDM1LjI2NiwzMy4yMzEgMzYuODA4LDMwLjg0QzM1LjgzMiwyOS42MDkgMzQuODQsMjguMzkgMzMuODMyLDI3LjE4NUMzNC4yNDYsMjYuMzg4IDM0LjU5LDI1LjU1NiAzNC44NjEsMjQuN0MzNi40MjYsMjQuNTYxIDM3Ljk4OSwyNC40MDEgMzkuNTUsMjQuMjJDNDAuMTUsMjEuNDM5IDQwLjE1LDE4LjU2MSAzOS41NSwxNS43OEMzNy45ODksMTUuNTk5IDM2LjQyNiwxNS40MzkgMzQuODYxLDE1LjNDMzQuNTksMTQuNDQ0IDM0LjI0NiwxMy42MTIgMzMuODMyLDEyLjgxNUMzNC44NCwxMS42MSAzNS44MzIsMTAuMzkxIDM2LjgwOCw5LjE2QzM1LjI2Niw2Ljc2OSAzMy4yMzEsNC43MzQgMzAuODQsMy4xOTJDMjkuNjA5LDQuMTY4IDI4LjM5LDUuMTYgMjcuMTg1LDYuMTY4QzI2LjM4OCw1Ljc1NCAyNS41NTYsNS40MSAyNC43LDUuMTM5QzI0LjU2MSwzLjU3NCAyNC40MDEsMi4wMTEgMjQuMjIsMC40NVpNMjAsMTQuMTM2QzIzLjIzNywxNC4xMzYgMjUuODY0LDE2Ljc2MyAyNS44NjQsMjBDMjUuODY0LDIzLjIzNyAyMy4yMzcsMjUuODY0IDIwLDI1Ljg2NEMxNi43NjMsMjUuODY0IDE0LjEzNiwyMy4yMzcgMTQuMTM2LDIwQzE0LjEzNiwxNi43NjMgMTYuNzYzLDE0LjEzNiAyMCwxNC4xMzZaIiBzdHlsZT0iZmlsbDpyZ2IoMTg2LDIwMCwyMTEpOyIvPgogICAgPHBhdGggZD0iTTI0LjIyLDAuNDVDMjEuNDM5LC0wLjE1IDE4LjU2MSwtMC4xNSAxNS43OCwwLjQ1QzE1LjU5OSwyLjAxMSAxNS40MzksMy41NzQgMTUuMyw1LjEzOUMxNC40NDQsNS40MSAxMy42MTIsNS43NTQgMTIuODE1LDYuMTY4QzExLjYxLDUuMTYgMTAuMzkxLDQuMTY4IDkuMTYsMy4xOTJDNi43NjksNC43MzQgNC43MzQsNi43NjkgMy4xOTIsOS4xNkM0LjE2OCwxMC4zOTEgNS4xNiwxMS42MSA2LjE2OCwxMi44MTVDNS43NTQsMTMuNjEyIDUuNDEsMTQuNDQ0IDUuMTM5LDE1LjNDMy41NzQsMTUuNDM5IDIuMDExLDE1LjU5OSAwLjQ1LDE1Ljc4Qy0wLjE1LDE4LjU2MSAtMC4xNSwyMS40MzkgMC40NSwyNC4yMkMyLjAxMSwyNC40MDEgMy41NzQsMjQuNTYxIDUuMTM5LDI0LjdDNS40MSwyNS41NTYgNS43NTQsMjYuMzg4IDYuMTY4LDI3LjE4NUM1LjE2LDI4LjM5IDQuMTY4LDI5LjYwOSAzLjE5MiwzMC44NEM0LjczNCwzMy4yMzEgNi43NjksMzUuMjY2IDkuMTYsMzYuODA4QzEwLjM5MSwzNS44MzIgMTEuNjEsMzQuODQgMTIuODE1LDMzLjgzMkMxMy42MTIsMzQuMjQ2IDE0LjQ0NCwzNC41OSAxNS4zLDM0Ljg2MUMxNS40MzksMzYuNDI2IDE1LjU5OSwzNy45ODkgMTUuNzgsMzkuNTVDMTguNTYxLDQwLjE1IDIxLjQzOSw0MC4xNSAyNC4yMiwzOS41NUMyNC40MDEsMzcuOTg5IDI0LjU2MSwzNi40MjYgMjQuNywzNC44NjFDMjUuNTU2LDM0LjU5IDI2LjM4OCwzNC4yNDYgMjcuMTg1LDMzLjgzMkMyOC4zOSwzNC44NCAyOS42MDksMzUuODMyIDMwLjg0LDM2LjgwOEMzMy4yMzEsMzUuMjY2IDM1LjI2NiwzMy4yMzEgMzYuODA4LDMwLjg0QzM1LjgzMiwyOS42MDkgMzQuODQsMjguMzkgMzMuODMyLDI3LjE4NUMzNC4yNDYsMjYuMzg4IDM0LjU5LDI1LjU1NiAzNC44NjEsMjQuN0MzNi40MjYsMjQuNTYxIDM3Ljk4OSwyNC40MDEgMzkuNTUsMjQuMjJDNDAuMTUsMjEuNDM5IDQwLjE1LDE4LjU2MSAzOS41NSwxNS43OEMzNy45ODksMTUuNTk5IDM2LjQyNiwxNS40MzkgMzQuODYxLDE1LjNDMzQuNTksMTQuNDQ0IDM0LjI0NiwxMy42MTIgMzMuODMyLDEyLjgxNUMzNC44NCwxMS42MSAzNS44MzIsMTAuMzkxIDM2LjgwOCw5LjE2QzM1LjI2Niw2Ljc2OSAzMy4yMzEsNC43MzQgMzAuODQsMy4xOTJDMjkuNjA5LDQuMTY4IDI4LjM5LDUuMTYgMjcuMTg1LDYuMTY4QzI2LjM4OCw1Ljc1NCAyNS41NTYsNS40MSAyNC43LDUuMTM5QzI0LjU2MSwzLjU3NCAyNC40MDEsMi4wMTEgMjQuMjIsMC40NVpNMjIuODU0LDEuNzIxQzIyLjk4MywyLjkwMyAyMy4xLDQuMDg3IDIzLjIwNSw1LjI3MUMyMy4yNTksNS44NzQgMjMuNjcsNi4zODYgMjQuMjQ3LDYuNTY5QzI1LjAyMiw2LjgxNCAyNS43NzMsNy4xMjUgMjYuNDk0LDcuNDk5QzI3LjAzMSw3Ljc3OSAyNy42ODQsNy43MDcgMjguMTQ4LDcuMzE5QzI5LjA2LDYuNTU1IDI5Ljk4LDUuODAyIDMwLjkwNyw1LjA1N0MzMi40NTMsNi4xODYgMzMuODE0LDcuNTQ3IDM0Ljk0Myw5LjA5M0MzNC4xOTgsMTAuMDIgMzMuNDQ1LDEwLjk0IDMyLjY4MSwxMS44NTJDMzIuMjkzLDEyLjMxNiAzMi4yMjEsMTIuOTY5IDMyLjUwMSwxMy41MDZDMzIuODc1LDE0LjIyNyAzMy4xODYsMTQuOTc4IDMzLjQzMSwxNS43NTNDMzMuNjE0LDE2LjMzIDM0LjEyNiwxNi43NDEgMzQuNzI5LDE2Ljc5NUMzNS45MTMsMTYuOSAzNy4wOTcsMTcuMDE3IDM4LjI3OSwxNy4xNDZDMzguNTc0LDE5LjAzNyAzOC41NzQsMjAuOTYzIDM4LjI3OSwyMi44NTNDMzcuMDk3LDIyLjk4MyAzNS45MTMsMjMuMSAzNC43MjksMjMuMjA1QzM0LjEyNiwyMy4yNTkgMzMuNjE0LDIzLjY3IDMzLjQzMSwyNC4yNDdDMzMuMTg2LDI1LjAyMiAzMi44NzUsMjUuNzczIDMyLjUwMSwyNi40OTRDMzIuMjIxLDI3LjAzMSAzMi4yOTMsMjcuNjg0IDMyLjY4MSwyOC4xNDhDMzMuNDQ1LDI5LjA2IDM0LjE5OCwyOS45OCAzNC45NDMsMzAuOTA3QzMzLjgxNCwzMi40NTMgMzIuNDUzLDMzLjgxNCAzMC45MDcsMzQuOTQzQzI5Ljk4LDM0LjE5OCAyOS4wNiwzMy40NDUgMjguMTQ4LDMyLjY4MUMyNy42ODQsMzIuMjkzIDI3LjAzMSwzMi4yMjEgMjYuNDk0LDMyLjUwMUMyNS43NzMsMzIuODc1IDI1LjAyMiwzMy4xODYgMjQuMjQ3LDMzLjQzMUMyMy42NywzMy42MTQgMjMuMjU5LDM0LjEyNiAyMy4yMDUsMzQuNzI5QzIzLjEsMzUuOTEzIDIyLjk4MywzNy4wOTcgMjIuODU0LDM4LjI3OUMyMC45NjMsMzguNTc0IDE5LjAzNywzOC41NzQgMTcuMTQ3LDM4LjI3OUMxNy4wMTcsMzcuMDk3IDE2LjksMzUuOTEzIDE2Ljc5NSwzNC43MjlDMTYuNzQxLDM0LjEyNiAxNi4zMywzMy42MTQgMTUuNzUzLDMzLjQzMUMxNC45NzgsMzMuMTg2IDE0LjIyNywzMi44NzUgMTMuNTA2LDMyLjUwMUMxMi45NjksMzIuMjIxIDEyLjMxNiwzMi4yOTMgMTEuODUyLDMyLjY4MUMxMC45NCwzMy40NDUgMTAuMDIsMzQuMTk4IDkuMDkzLDM0Ljk0M0M3LjU0NywzMy44MTQgNi4xODYsMzIuNDUzIDUuMDU3LDMwLjkwN0M1LjgwMiwyOS45OCA2LjU1NSwyOS4wNiA3LjMxOSwyOC4xNDhDNy43MDcsMjcuNjg0IDcuNzc5LDI3LjAzMSA3LjQ5OSwyNi40OTRDNy4xMjUsMjUuNzczIDYuODE0LDI1LjAyMiA2LjU2OSwyNC4yNDdDNi4zODYsMjMuNjcgNS44NzQsMjMuMjU5IDUuMjcxLDIzLjIwNUM0LjA4NywyMy4xIDIuOTAzLDIyLjk4MyAxLjcyMSwyMi44NTRDMS40MjYsMjAuOTYzIDEuNDI2LDE5LjAzNyAxLjcyMSwxNy4xNDdDMi45MDMsMTcuMDE3IDQuMDg3LDE2LjkgNS4yNzEsMTYuNzk1QzUuODc0LDE2Ljc0MSA2LjM4NiwxNi4zMyA2LjU2OSwxNS43NTNDNi44MTQsMTQuOTc4IDcuMTI1LDE0LjIyNyA3LjQ5OSwxMy41MDZDNy43NzksMTIuOTY5IDcuNzA3LDEyLjMxNiA3LjMxOSwxMS44NTJDNi41NTUsMTAuOTQgNS44MDIsMTAuMDIgNS4wNTcsOS4wOTNDNi4xODYsNy41NDcgNy41NDcsNi4xODYgOS4wOTMsNS4wNTdDMTAuMDIsNS44MDIgMTAuOTQsNi41NTUgMTEuODUyLDcuMzE5QzEyLjMxNiw3LjcwNyAxMi45NjksNy43NzkgMTMuNTA2LDcuNDk5QzE0LjIyNyw3LjEyNSAxNC45NzgsNi44MTQgMTUuNzUzLDYuNTY5QzE2LjMzLDYuMzg2IDE2Ljc0MSw1Ljg3NCAxNi43OTUsNS4yNzFDMTYuOSw0LjA4NyAxNy4wMTcsMi45MDMgMTcuMTQ2LDEuNzIxQzE5LjAzNywxLjQyNiAyMC45NjMsMS40MjYgMjIuODUzLDEuNzIxTDIyLjg1NCwxLjcyMVpNMjAsMTIuNjM2QzE1LjkzNiwxMi42MzYgMTIuNjM2LDE1LjkzNiAxMi42MzYsMjBDMTIuNjM2LDI0LjA2NCAxNS45MzYsMjcuMzY0IDIwLDI3LjM2NEMyNC4wNjQsMjcuMzY0IDI3LjM2NCwyNC4wNjQgMjcuMzY0LDIwQzI3LjM2NCwxNS45MzYgMjQuMDY0LDEyLjYzNiAyMCwxMi42MzZaTTIwLDE0LjEzNkMyMy4yMzcsMTQuMTM2IDI1Ljg2NCwxNi43NjMgMjUuODY0LDIwQzI1Ljg2NCwyMy4yMzcgMjMuMjM3LDI1Ljg2NCAyMCwyNS44NjRDMTYuNzYzLDI1Ljg2NCAxNC4xMzYsMjMuMjM3IDE0LjEzNiwyMEMxNC4xMzYsMTYuNzYzIDE2Ljc2MywxNC4xMzYgMjAsMTQuMTM2WiIvPgogICAgPGcgdHJhbnNmb3JtPSJtYXRyaXgoMi4xNTE4OSwwLDAsMi4xNTE4OSwwLjk3MjQ3MSwxLjU1ODM0KSI+CiAgICAgICAgPHBhdGggZD0iTTE4LjQwMiwxM0MxOC40MDQsMTIuNjQxIDE4LjI0LDEyLjMgMTcuOTU3LDEyLjA3OUMxNy45NTcsMTIuMDc5IDEzLjI0Nyw4LjE0NyAxMy4yNDcsOC4xNDdDMTMuMjM1LDguMTM3IDEzLjIyMyw4LjEyOCAxMy4yMTEsOC4xMTlDMTMuMDA0LDcuOTY5IDEyLjc1NSw3Ljg4OCAxMi41LDcuODg4QzExLjg3OCw3Ljg4OCAxMS4zNTcsOC4zNzkgMTEuMzIsOC45OTlDMTEuMzE5LDkuMDEzIDExLjMxOCw5LjAyNiAxMS4zMTgsOS4wNEwxMS4zMTgsMTYuOTNDMTEuMzE4LDE3LjU3OCAxMS44NTEsMTguMTExIDEyLjQ5OSwxOC4xMTJDMTIuNzY4LDE4LjExMiAxMy4wMjksMTguMDIyIDEzLjI0LDE3Ljg1N0MxMy4yNDYsMTcuODUyIDEzLjI1MSwxNy44NDggMTMuMjU3LDE3Ljg0M0wxNy45NTcsMTMuOTIxQzE4LjIzOSwxMy43IDE4LjQwNCwxMy4zNiAxOC40MDIsMTNMMTguNDAyLDEzWk0xMi42ODIsMTYuNTQ4TDE2LjkzNCwxM0wxMi42ODIsOS40NTFMMTIuNjgyLDE2LjU0OFoiIHN0eWxlPSJmaWxsOndoaXRlOyIvPgogICAgPC9nPgogICAgPGcgdHJhbnNmb3JtPSJtYXRyaXgoMi4xNTE4OSwwLDAsMi4xNTE4OSwwLjk3MjQ3MSwxLjU1ODM0KSI+CiAgICAgICAgPHBhdGggZD0iTTE3LjcyLDEzQzE3LjcyMywxMy4xNTMgMTcuNjUyLDEzLjI5OCAxNy41MywxMy4zOUwxMi44MiwxNy4zMkMxMi43MjksMTcuMzkyIDEyLjYxNiwxNy40MyAxMi41LDE3LjQzQzEyLjIyNiwxNy40MyAxMiwxNy4yMDQgMTIsMTYuOTNMMTIsOS4wNEMxMi4wMTYsOC43NzcgMTIuMjM3LDguNTcgMTIuNSw4LjU3QzEyLjYxMSw4LjU2OSAxMi43Miw4LjYwNCAxMi44MSw4LjY3TDE3LjUzLDEyLjYxQzE3LjY1MiwxMi43MDIgMTcuNzIzLDEyLjg0NyAxNy43MiwxM1oiIHN0eWxlPSJmaWxsOnJnYigxNTcsMTkxLDIxKTtmaWxsLXJ1bGU6bm9uemVybzsiLz4KICAgIDwvZz4KPC9zdmc+Cg==;labelPosition=center;verticalLabelPosition=bottom;align=center;verticalAlign=top;" parent="1" vertex="1">
          <mxGeometry x="210" y="360" width="40" height="40" as="geometry" />
        </mxCell>
        <mxCell id="i5078P6cimb0io9gRPc_-4" value="Builder" style="shape=image;aspect=fixed;image=data:image/svg+xml,PD94bWwgdmVyc2lvbj0iMS4wIiBlbmNvZGluZz0iVVRGLTgiIHN0YW5kYWxvbmU9Im5vIj8+CjwhRE9DVFlQRSBzdmcgUFVCTElDICItLy9XM0MvL0RURCBTVkcgMS4xLy9FTiIgImh0dHA6Ly93d3cudzMub3JnL0dyYXBoaWNzL1NWRy8xLjEvRFREL3N2ZzExLmR0ZCI+Cjxzdmcgd2lkdGg9IjEwMCUiIGhlaWdodD0iMTAwJSIgdmlld0JveD0iMCAwIDQwIDQwIiB2ZXJzaW9uPSIxLjEiIHhtbG5zPSJodHRwOi8vd3d3LnczLm9yZy8yMDAwL3N2ZyIgeG1sbnM6eGxpbms9Imh0dHA6Ly93d3cudzMub3JnLzE5OTkveGxpbmsiIHhtbDpzcGFjZT0icHJlc2VydmUiIHhtbG5zOnNlcmlmPSJodHRwOi8vd3d3LnNlcmlmLmNvbS8iIHN0eWxlPSJmaWxsLXJ1bGU6ZXZlbm9kZDtjbGlwLXJ1bGU6ZXZlbm9kZDtzdHJva2UtbGluZWpvaW46cm91bmQ7c3Ryb2tlLW1pdGVybGltaXQ6MjsiPgogICAgPGc+CiAgICAgICAgPGcgdHJhbnNmb3JtPSJtYXRyaXgoMC45NSwwLDAsMC45NSwtMC40MjUsMC41MjUpIj4KICAgICAgICAgICAgPHBhdGggZD0iTTQxLjUsMS4wOTVDNDEuNSwwLjc2NiA0MS4yMzQsMC41IDQwLjkwNSwwLjVDMzYuMzIyLDAuNSA2LjY3MywwLjUgMi4wOTQsMC41QzEuOTM2LDAuNSAxLjc4NSwwLjU2MyAxLjY3NCwwLjY3NEMxLjU2MywwLjc4NSAxLjUsMC45MzYgMS41LDEuMDk0QzEuNSw1LjY3MiAxLjUsMzUuMzEzIDEuNSwzOS45MDNDMS41LDQwLjIzMyAxLjc2Nyw0MC41IDIuMDk3LDQwLjVMNDAuOTEzLDQwLjVDNDEuMDY5LDQwLjUgNDEuMjE4LDQwLjQzOCA0MS4zMjgsNDAuMzI4QzQxLjQzOCw0MC4yMTggNDEuNSw0MC4wNjkgNDEuNSwzOS45MTNMNDEuNSwxLjA5NVoiIHN0eWxlPSJmaWxsOnJnYigxODYsMjAwLDIxMSk7Ii8+CiAgICAgICAgPC9nPgogICAgICAgIDxnIHRyYW5zZm9ybT0ibWF0cml4KDEsMCwwLDEsMjAsMzAuNjkwOCkiPgogICAgICAgICAgICA8cGF0aCBkPSJNLTguNTQ1LC0xMS45MzZMLTcuMjAxLC05LjgxMkwtMTMuNTI0LC02LjExOUwtNy4yMDEsLTIuNDk0TC04LjU5NCwtMC4zMDJMLTE2LjE4NCwtNS4wMThMLTE2LjE4NCwtNy4yMDFMLTguNTQ1LC0xMS45MzZaIiBzdHlsZT0iZmlsbDp3aGl0ZTtmaWxsLXJ1bGU6bm9uemVybzsiLz4KICAgICAgICAgICAgPHBhdGggZD0iTS0yLjg4NCwyLjE4M0wtNS4yOTEsMS4wODJMMi45MDQsLTE1LjkyMUw1LjI5MSwtMTQuODJMLTIuODg0LDIuMTgzWiIgc3R5bGU9ImZpbGw6d2hpdGU7ZmlsbC1ydWxlOm5vbnplcm87Ii8+CiAgICAgICAgICAgIDxwYXRoIGQ9Ik04LjU2NSwtMTEuOTM2TDE2LjE4NCwtNy4yMkwxNi4xODQsLTUuMDE4TDguNTk0LC0wLjMwMkw3LjIwMSwtMi4zOTdMMTMuNTM0LC02LjExOUw3LjIwMSwtOS43MjRMOC41NjUsLTExLjkzNloiIHN0eWxlPSJmaWxsOndoaXRlO2ZpbGwtcnVsZTpub256ZXJvOyIvPgogICAgICAgIDwvZz4KICAgICAgICA8ZyB0cmFuc2Zvcm09Im1hdHJpeCgwLjk1LDAsMCwwLjc5ODk2NiwtMC40MjUsMC42MDA1MTcpIj4KICAgICAgICAgICAgPHBhdGggZD0iTTQxLjUsMS4yOTlDNDEuNSwxLjA4NyA0MS40MjksMC44ODQgNDEuMzAzLDAuNzM0QzQxLjE3NywwLjU4NCA0MS4wMDYsMC41IDQwLjgyOCwwLjVDMzYuMDExLDAuNSA2LjgwNywwLjUgMi4xMzEsMC41QzEuNzgzLDAuNSAxLjUsMC44MzYgMS41LDEuMjUxQzEuNSwzLjU3NSAxLjUsMTAuNSAxLjUsMTAuNUw0MS41LDEwLjVMNDEuNSwxLjI5OVoiIHN0eWxlPSJmaWxsOnJnYigxNDYsMTU3LDE2Nik7Ii8+CiAgICAgICAgPC9nPgogICAgICAgIDxnIHRyYW5zZm9ybT0ibWF0cml4KDAuOTUsMCwwLDAuOTUsLTAuNDI1LDAuNTI1KSI+CiAgICAgICAgICAgIDxwYXRoIGQ9Ik00Mi41LDM5LjkxM0w0Mi41LDEuMDk1QzQyLjUsMC4yMTQgNDEuNzg2LC0wLjUgNDAuOTA1LC0wLjVMMi4wOTQsLTAuNUMxLjY3MSwtMC41IDEuMjY2LC0wLjMzMiAwLjk2NywtMC4wMzNDMC42NjgsMC4yNjYgMC41LDAuNjcxIDAuNSwxLjA5NEMwLjUsNS42NzIgMC41LDM1LjMxMyAwLjUsMzkuOTAzQzAuNSw0MC43ODUgMS4yMTUsNDEuNSAyLjA5Nyw0MS41TDQwLjkxMyw0MS41QzQxLjMzNCw0MS41IDQxLjczOCw0MS4zMzMgNDIuMDM1LDQxLjAzNUM0Mi4zMzMsNDAuNzM4IDQyLjUsNDAuMzM0IDQyLjUsMzkuOTEzWk0yLjUsMzkuNUw0MC41LDM5LjVMNDAuNSwxLjVMMi41LDEuNUwyLjUsMzkuNVoiIHN0eWxlPSJmaWxsOnJnYigzNSw2OCw5Myk7Ii8+CiAgICAgICAgPC9nPgogICAgPC9nPgo8L3N2Zz4K;labelPosition=center;verticalLabelPosition=bottom;align=center;verticalAlign=top;labelBackgroundColor=none;" parent="1" vertex="1">
          <mxGeometry x="410" y="360" width="40" height="40" as="geometry" />
        </mxCell>
        <mxCell id="i5078P6cimb0io9gRPc_-5" value="Composition&#xa;Location" style="shape=mxgraph.ios7.icons.globe;image=data:image/svg+xml,PD94bWwgdmVyc2lvbj0iMS4wIiBlbmNvZGluZz0iVVRGLTgiIHN0YW5kYWxvbmU9Im5vIj8+CjwhRE9DVFlQRSBzdmcgUFVCTElDICItLy9XM0MvL0RURCBTVkcgMS4xLy9FTiIgImh0dHA6Ly93d3cudzMub3JnL0dyYXBoaWNzL1NWRy8xLjEvRFREL3N2ZzExLmR0ZCI+Cjxzdmcgd2lkdGg9IjEwMCUiIGhlaWdodD0iMTAwJSIgdmlld0JveD0iMCAwIDMwIDQwIiB2ZXJzaW9uPSIxLjEiIHhtbG5zPSJodHRwOi8vd3d3LnczLm9yZy8yMDAwL3N2ZyIgeG1sbnM6eGxpbms9Imh0dHA6Ly93d3cudzMub3JnLzE5OTkveGxpbmsiIHhtbDpzcGFjZT0icHJlc2VydmUiIHhtbG5zOnNlcmlmPSJodHRwOi8vd3d3LnNlcmlmLmNvbS8iIHN0eWxlPSJmaWxsLXJ1bGU6ZXZlbm9kZDtjbGlwLXJ1bGU6ZXZlbm9kZDtzdHJva2UtbGluZWpvaW46cm91bmQ7c3Ryb2tlLW1pdGVybGltaXQ6MjsiPgogICAgPHBhdGggZD0iTTMwLDQwTDAsNDBMMCwwTDIwLjgzOCwwTDMwLDkuMDZMMzAsNDBaIi8+CiAgICA8cGF0aCBkPSJNMS44NzUsMS44NzVMMS44NzUsMzguMTI1TDI4LjEyNSwzOC4xMjVMMjguMTI1LDkuODQyTDIwLjA2NywxLjg3NUwxLjg3NSwxLjg3NVoiIHN0eWxlPSJmaWxsOndoaXRlOyIvPgogICAgPGcgdHJhbnNmb3JtPSJtYXRyaXgoMS41MjYwOSwwLDAsMS41MjYwOSwtMTIuMzYsLTIuNjAzMTQpIj4KICAgICAgICA8cGF0aCBkPSJNMjAuMjEyLDEuNzA2TDIxLjc1NCwxLjcwNkwyNy43NTcsNy42NDJMMjcuNzU3LDkuMTIxTDIwLjIxMiw5LjEyMUwyMC4yMTIsMS43MDZaIi8+CiAgICA8L2c+CiAgICA8ZyB0cmFuc2Zvcm09Im1hdHJpeCgxLjUyNjA5LDAsMCwxLjUyNjA5LC0xMi4zNiwtMi42MDMxNCkiPgogICAgICAgIDxwYXRoIGQ9Ik0yMS40NDEsNy44OTNMMjYuMjYzLDcuODkzTDIxLjQ0MSwzLjEyNUwyMS40NDEsNy44OTNaIiBzdHlsZT0iZmlsbDpyZ2IoMjA4LDIwOCwyMDgpOyIvPgogICAgPC9nPgo8L3N2Zz4K;labelPosition=center;verticalLabelPosition=bottom;align=center;verticalAlign=top;labelBackgroundColor=#ffffff;html=1;strokeWidth=1;strokeColor=#666666;shadow=0;dashed=0;fillColor=#f5f5f5;fontColor=#333333;" parent="1" vertex="1">
          <mxGeometry x="115" y="420" width="40" height="40" as="geometry" />
        </mxCell>
        <mxCell id="i5078P6cimb0io9gRPc_-7" value="UI" style="sketch=0;points=[[0,0,0],[0.25,0,0],[0.5,0,0],[0.75,0,0],[1,0,0],[0,1,0],[0.25,1,0],[0.5,1,0],[0.75,1,0],[1,1,0],[0,0.25,0],[0,0.5,0],[0,0.75,0],[1,0.25,0],[1,0.5,0],[1,0.75,0]];outlineConnect=0;fontColor=#232F3E;fillColor=#FF8000;strokeColor=#ffffff;dashed=0;verticalLabelPosition=bottom;verticalAlign=top;align=center;html=1;fontSize=12;fontStyle=0;aspect=fixed;shape=mxgraph.aws4.resourceIcon;resIcon=mxgraph.aws4.command_line_interface;" parent="1" vertex="1">
          <mxGeometry x="305" y="420" width="40" height="40" as="geometry" />
        </mxCell>
        <mxCell id="i5078P6cimb0io9gRPc_-8" value="Initial Data" style="shape=image;image=data:image/svg+xml,PD94bWwgdmVyc2lvbj0iMS4wIiBlbmNvZGluZz0iVVRGLTgiIHN0YW5kYWxvbmU9Im5vIj8+CjwhRE9DVFlQRSBzdmcgUFVCTElDICItLy9XM0MvL0RURCBTVkcgMS4xLy9FTiIgImh0dHA6Ly93d3cudzMub3JnL0dyYXBoaWNzL1NWRy8xLjEvRFREL3N2ZzExLmR0ZCI+Cjxzdmcgd2lkdGg9IjEwMCUiIGhlaWdodD0iMTAwJSIgdmlld0JveD0iMCAwIDMwIDQwIiB2ZXJzaW9uPSIxLjEiIHhtbG5zPSJodHRwOi8vd3d3LnczLm9yZy8yMDAwL3N2ZyIgeG1sbnM6eGxpbms9Imh0dHA6Ly93d3cudzMub3JnLzE5OTkveGxpbmsiIHhtbDpzcGFjZT0icHJlc2VydmUiIHhtbG5zOnNlcmlmPSJodHRwOi8vd3d3LnNlcmlmLmNvbS8iIHN0eWxlPSJmaWxsLXJ1bGU6ZXZlbm9kZDtjbGlwLXJ1bGU6ZXZlbm9kZDtzdHJva2UtbGluZWpvaW46cm91bmQ7c3Ryb2tlLW1pdGVybGltaXQ6MjsiPgogICAgPGcgdHJhbnNmb3JtPSJtYXRyaXgoMC45Mzg4NTEsMCwwLDAuOTUyMzgxLDAsMCkiPgogICAgICAgIDxnIHRyYW5zZm9ybT0ibWF0cml4KDEsMCwwLDEsLTUyOS41LC00MTkuNSkiPgogICAgICAgICAgICA8cGF0aCBkPSJNNTMwLjUsNDIwLjVMNTQ5LjUsNDIwLjVMNTYwLjUsNDMxLjVMNTYwLjUsNDYwLjVMNTMwLjUsNDYwLjVMNTMwLjUsNDIwLjVaIiBzdHlsZT0iZmlsbDpyZ2IoMjU1LDI0MiwyMDQpO2ZpbGwtcnVsZTpub256ZXJvOyIvPgogICAgICAgIDwvZz4KICAgICAgICA8ZyB0cmFuc2Zvcm09Im1hdHJpeCgxLDAsMCwxLC01MjkuNSwtNDE5LjUpIj4KICAgICAgICAgICAgPHBhdGggZD0iTTU0OS41LDQyMC41TDU0OS41LDQzMS41TDU2MC41LDQzMS41TDU0OS41LDQyMC41WiIgc3R5bGU9ImZpbGwtb3BhY2l0eTowLjA1O2ZpbGwtcnVsZTpub256ZXJvOyIvPgogICAgICAgIDwvZz4KICAgICAgICA8ZyB0cmFuc2Zvcm09Im1hdHJpeCgxLDAsMCwxLC03LjQ3OTQ2LC03LjUxMzI3KSI+CiAgICAgICAgICAgIDxwYXRoIGQ9Ik0yNy44OTQsNy41MTNMNy40NzksNy41MTNMNy40NzksNDkuNTEzTDM5LjQ3OSw0OS41MTNMMzkuNDc5LDE5LjA5OUwyNy44OTQsNy41MTNaTTI2LjQ3OSw5LjUxM0wyNi40NzksMjAuNTEzTDM3LjQ3OSwyMC41MTNMMzcuNDc5LDQ3LjUxM0MzNy40NzksNDcuNTEzIDkuNDc5LDQ3LjUxMyA5LjQ3OSw0Ny41MTNMOS40NzksOS41MTNMMjYuNDc5LDkuNTEzWk0zNi4wNjUsMTguNTEzTDI4LjQ3OSwxMC45MjdMMjguNDc5LDE4LjUxM0wzNi4wNjUsMTguNTEzWiIgc3R5bGU9ImZpbGw6cmdiKDIxNCwxODIsODYpOyIvPgogICAgICAgIDwvZz4KICAgIDwvZz4KICAgIDxnIHRyYW5zZm9ybT0ibWF0cml4KDAuODYzNTQ4LDAsMCwwLjg2MzU0OCwyLjA0OTcyLDUuMjAwOTUpIj4KICAgICAgICA8ZyB0cmFuc2Zvcm09Im1hdHJpeCgxLDAsMCwxLC01MzAuNDczLC00MTcuMDM0KSI+CiAgICAgICAgICAgIDxwYXRoIGQ9Ik01MzguMjUsNDMzLjI2QzUzOC4yNSw0MzMuMTUxIDUzOC4zNzIsNDMzLjA4OCA1MzguNDg3LDQzMi45OTNDNTM4LjY4NSw0MzIuODI4IDUzOC45NDYsNDMyLjY3OCA1MzkuMjU1LDQzMi41MzdDNTQwLjY2MSw0MzEuODk2IDU0Mi45MzIsNDMxLjUgNTQ1LjQ5LDQzMS41QzU0OC4wNTQsNDMxLjUgNTUwLjMyOCw0MzEuODk2IDU1MS43MzQsNDMyLjUzN0M1NTIuMDQzLDQzMi42NzggNTUyLjMwNSw0MzIuODI4IDU1Mi41MDMsNDMyLjk5M0M1NTIuNjE4LDQzMy4wODggNTUyLjc0LDQzMy4xNTEgNTUyLjc0LDQzMy4yNkM1NTIuNzQsNDMzLjI2IDU1Mi43NCw0NDcuNzQgNTUyLjc0LDQ0Ny43NEM1NTIuNzQsNDQ3Ljg0OCA1NTIuNjE4LDQ0Ny45MDggNTUyLjUwNCw0NDguMDAyQzU1Mi4zMDUsNDQ4LjE2NyA1NTIuMDQzLDQ0OC4zMTcgNTUxLjczNCw0NDguNDU5QzU1MC4zMjgsNDQ5LjEwMSA1NDguMDU0LDQ0OS41IDU0NS40OSw0NDkuNUM1NDIuOTMyLDQ0OS41IDU0MC42NjEsNDQ5LjEwMSA1MzkuMjU2LDQ0OC40NTlDNTM4Ljk0Niw0NDguMzE3IDUzOC42ODUsNDQ4LjE2NyA1MzguNDg2LDQ0OC4wMDJDNTM4LjM3Miw0NDcuOTA4IDUzOC4yNSw0NDcuODQ4IDUzOC4yNSw0NDcuNzRDNTM4LjI1LDQ0Ny43NCA1MzguMjUsNDMzLjI2IDUzOC4yNSw0MzMuMjZaIiBzdHlsZT0iZmlsbDp3aGl0ZTsiLz4KICAgICAgICA8L2c+CiAgICAgICAgPHBhdGggZD0iTTUuNzc3LDE2LjIyNkw1Ljc3NywzMC43MDZDNS43NzcsMzEuNDM5IDYuMjA5LDMyLjIwMiA3LjE1NCwzMi44MTJDOC42MjksMzMuNzY1IDExLjU5MSwzNC40NjYgMTUuMDE3LDM0LjQ2NkMxOC40NDksMzQuNDY2IDIxLjQxMywzMy43NjUgMjIuODg5LDMyLjgxMkMyMy44MzQsMzIuMjAyIDI0LjI2NywzMS40MzkgMjQuMjY3LDMwLjcwNkwyNC4yNjcsMTYuMjI2QzI0LjI2NywxNS40ODggMjMuODM0LDE0LjcyNSAyMi44ODksMTQuMTE1QzIxLjQxNCwxMy4xNjIgMTguNDQ5LDEyLjQ2NiAxNS4wMTcsMTIuNDY2QzExLjU5MSwxMi40NjYgOC42MjksMTMuMTYyIDcuMTU0LDE0LjExNUM2LjIwOSwxNC43MjUgNS43NzcsMTUuNDg5IDUuNzc3LDE2LjIyNlpNMjIuMjY3LDI4LjQwMkMyMC42NjQsMjkuMTczIDE4LjAxOSwyOS43MDYgMTUuMDE3LDI5LjcwNkMxMi4wMjEsMjkuNzA2IDkuMzc5LDI5LjE3NCA3Ljc3NywyOC40MDJMNy43NzcsMzAuNzA2QzcuNzc3LDMwLjgxNCA3Ljg5OCwzMC44NzQgOC4wMTMsMzAuOTY4QzguMjEyLDMxLjEzMyA4LjQ3MywzMS4yODMgOC43ODIsMzEuNDI1QzEwLjE4NywzMi4wNjcgMTIuNDU5LDMyLjQ2NiAxNS4wMTcsMzIuNDY2QzE3LjU4MSwzMi40NjYgMTkuODU0LDMyLjA2NyAyMS4yNiwzMS40MjRDMjEuNTcsMzEuMjgzIDIxLjgzMiwzMS4xMzMgMjIuMDMxLDMwLjk2OEMyMi4xNDUsMzAuODc0IDIyLjI2NywzMC44MTQgMjIuMjY3LDMwLjcwNkwyMi4yNjcsMjguNDAyWk0yMi4yNjcsMjMuMjI4QzIwLjY2NCwyNCAxOC4wMTksMjQuNTM2IDE1LjAxNywyNC41MzZDMTIuMDIsMjQuNTM2IDkuMzc5LDI0IDcuNzc3LDIzLjIyOEw3Ljc3NywyNS45NDZDNy43NzcsMjYuMDU1IDcuODk4LDI2LjExNyA4LjAxMywyNi4yMTNDOC4yMTIsMjYuMzc3IDguNDczLDI2LjUyOCA4Ljc4MiwyNi42NjlDMTAuMTg3LDI3LjMxIDEyLjQ1OCwyNy43MDYgMTUuMDE3LDI3LjcwNkMxNy41ODEsMjcuNzA2IDE5Ljg1NSwyNy4zMSAyMS4yNjEsMjYuNjY5QzIxLjU3LDI2LjUyNyAyMS44MzEsMjYuMzc3IDIyLjAzLDI2LjIxM0MyMi4xNDUsMjYuMTE3IDIyLjI2NywyNi4wNTUgMjIuMjY3LDI1Ljk0NkwyMi4yNjcsMjMuMjI4Wk0yMi4yNjcsMTguNjc4QzIwLjY2NCwxOS40NSAxOC4wMTksMTkuOTg2IDE1LjAxNywxOS45ODZDMTIuMDIsMTkuOTg2IDkuMzc5LDE5LjQ1IDcuNzc3LDE4LjY3OEw3Ljc3NywyMC43NzZDNy43NzcsMjAuODg0IDcuODk4LDIwLjk0NCA4LjAxMywyMS4wMzhDOC4yMTIsMjEuMjAzIDguNDczLDIxLjM1MyA4Ljc4MiwyMS40OTVDMTAuMTg3LDIyLjEzNyAxMi40NTksMjIuNTM2IDE1LjAxNywyMi41MzZDMTcuNTgxLDIyLjUzNiAxOS44NTQsMjIuMTM3IDIxLjI2LDIxLjQ5NEMyMS41NywyMS4zNTMgMjEuODMyLDIxLjIwMyAyMi4wMzEsMjEuMDM4QzIyLjE0NSwyMC45NDQgMjIuMjY3LDIwLjg4NCAyMi4yNjcsMjAuNzc2TDIyLjI2NywxOC42NzhaTTIyLjI2NiwxNi4yMTZDMjIuMjU5LDE2LjExMyAyMi4xNDEsMTYuMDUxIDIyLjAzLDE1Ljk1OUMyMS44MzEsMTUuNzk0IDIxLjU3LDE1LjY0NCAyMS4yNjEsMTUuNTAzQzE5Ljg1NSwxNC44NjEgMTcuNTgxLDE0LjQ2NiAxNS4wMTcsMTQuNDY2QzEyLjQ1OCwxNC40NjYgMTAuMTg3LDE0Ljg2MSA4Ljc4MiwxNS41MDNDOC40NzMsMTUuNjQ0IDguMjEyLDE1Ljc5NCA4LjAxMywxNS45NTlDNy44OTgsMTYuMDU0IDcuNzc3LDE2LjExNiA3Ljc3NywxNi4yMjZMNy43NzcsMTYuMjM2QzcuNzg0LDE2LjMzNyA3LjkwMiwxNi4zOTcgOC4wMTMsMTYuNDg4QzguMjEyLDE2LjY1MyA4LjQ3MywxNi44MDMgOC43ODIsMTYuOTQ1QzEwLjE4NywxNy41ODcgMTIuNDU5LDE3Ljk4NiAxNS4wMTcsMTcuOTg2QzE3LjU4MSwxNy45ODYgMTkuODU0LDE3LjU4NyAyMS4yNiwxNi45NDRDMjEuNTcsMTYuODAzIDIxLjgzMiwxNi42NTMgMjIuMDMxLDE2LjQ4OEMyMi4xNDUsMTYuMzk0IDIyLjI2NywxNi4zMzQgMjIuMjY3LDE2LjIyNkwyMi4yNjYsMTYuMjE2WiIgc3R5bGU9ImZpbGw6cmdiKDE5MSwxNTQsNjQpOyIvPgogICAgPC9nPgo8L3N2Zz4K;aspect=fixed;labelPosition=center;verticalLabelPosition=bottom;align=center;verticalAlign=top;labelBackgroundColor=none;" parent="1" vertex="1">
          <mxGeometry x="120" y="300" width="30" height="40" as="geometry" />
        </mxCell>
        <mxCell id="i5078P6cimb0io9gRPc_-10" value="Context" style="shape=image;image=data:image/svg+xml,PD94bWwgdmVyc2lvbj0iMS4wIiBlbmNvZGluZz0iVVRGLTgiIHN0YW5kYWxvbmU9Im5vIj8+CjwhRE9DVFlQRSBzdmcgUFVCTElDICItLy9XM0MvL0RURCBTVkcgMS4xLy9FTiIgImh0dHA6Ly93d3cudzMub3JnL0dyYXBoaWNzL1NWRy8xLjEvRFREL3N2ZzExLmR0ZCI+Cjxzdmcgd2lkdGg9IjEwMCUiIGhlaWdodD0iMTAwJSIgdmlld0JveD0iMCAwIDMwIDQwIiB2ZXJzaW9uPSIxLjEiIHhtbG5zPSJodHRwOi8vd3d3LnczLm9yZy8yMDAwL3N2ZyIgeG1sbnM6eGxpbms9Imh0dHA6Ly93d3cudzMub3JnLzE5OTkveGxpbmsiIHhtbDpzcGFjZT0icHJlc2VydmUiIHhtbG5zOnNlcmlmPSJodHRwOi8vd3d3LnNlcmlmLmNvbS8iIHN0eWxlPSJmaWxsLXJ1bGU6ZXZlbm9kZDtjbGlwLXJ1bGU6ZXZlbm9kZDtzdHJva2UtbGluZWpvaW46cm91bmQ7c3Ryb2tlLW1pdGVybGltaXQ6MjsiPgogICAgPGcgdHJhbnNmb3JtPSJtYXRyaXgoMC45Mzg4NTEsMCwwLDAuOTUyMzgxLDAsMCkiPgogICAgICAgIDxnIHRyYW5zZm9ybT0ibWF0cml4KDEsMCwwLDEsLTUyOS41LC00MTkuNSkiPgogICAgICAgICAgICA8cGF0aCBkPSJNNTMwLjUsNDIwLjVMNTQ5LjUsNDIwLjVMNTYwLjUsNDMxLjVMNTYwLjUsNDYwLjVMNTMwLjUsNDYwLjVMNTMwLjUsNDIwLjVaIiBzdHlsZT0iZmlsbDpyZ2IoMjU1LDI0MiwyMDQpO2ZpbGwtcnVsZTpub256ZXJvOyIvPgogICAgICAgIDwvZz4KICAgICAgICA8ZyB0cmFuc2Zvcm09Im1hdHJpeCgxLDAsMCwxLC01MjkuNSwtNDE5LjUpIj4KICAgICAgICAgICAgPHBhdGggZD0iTTU0OS41LDQyMC41TDU0OS41LDQzMS41TDU2MC41LDQzMS41TDU0OS41LDQyMC41WiIgc3R5bGU9ImZpbGwtb3BhY2l0eTowLjA1O2ZpbGwtcnVsZTpub256ZXJvOyIvPgogICAgICAgIDwvZz4KICAgICAgICA8ZyB0cmFuc2Zvcm09Im1hdHJpeCgxLDAsMCwxLC03LjQ3OTQ2LC03LjUxMzI3KSI+CiAgICAgICAgICAgIDxwYXRoIGQ9Ik0yNy44OTQsNy41MTNMNy40NzksNy41MTNMNy40NzksNDkuNTEzTDM5LjQ3OSw0OS41MTNMMzkuNDc5LDE5LjA5OUwyNy44OTQsNy41MTNaTTI2LjQ3OSw5LjUxM0wyNi40NzksMjAuNTEzTDM3LjQ3OSwyMC41MTNMMzcuNDc5LDQ3LjUxM0MzNy40NzksNDcuNTEzIDkuNDc5LDQ3LjUxMyA5LjQ3OSw0Ny41MTNMOS40NzksOS41MTNMMjYuNDc5LDkuNTEzWk0zNi4wNjUsMTguNTEzTDI4LjQ3OSwxMC45MjdMMjguNDc5LDE4LjUxM0wzNi4wNjUsMTguNTEzWiIgc3R5bGU9ImZpbGw6cmdiKDIxNCwxODIsODYpOyIvPgogICAgICAgIDwvZz4KICAgIDwvZz4KICAgIDxnIHRyYW5zZm9ybT0ibWF0cml4KDAuODYzNTQ4LDAsMCwwLjg2MzU0OCwyLjA0OTcyLDUuMjAwOTUpIj4KICAgICAgICA8ZyB0cmFuc2Zvcm09Im1hdHJpeCgxLDAsMCwxLC01MzAuNDczLC00MTcuMDM0KSI+CiAgICAgICAgICAgIDxwYXRoIGQ9Ik01MzguMjUsNDMzLjI2QzUzOC4yNSw0MzMuMTUxIDUzOC4zNzIsNDMzLjA4OCA1MzguNDg3LDQzMi45OTNDNTM4LjY4NSw0MzIuODI4IDUzOC45NDYsNDMyLjY3OCA1MzkuMjU1LDQzMi41MzdDNTQwLjY2MSw0MzEuODk2IDU0Mi45MzIsNDMxLjUgNTQ1LjQ5LDQzMS41QzU0OC4wNTQsNDMxLjUgNTUwLjMyOCw0MzEuODk2IDU1MS43MzQsNDMyLjUzN0M1NTIuMDQzLDQzMi42NzggNTUyLjMwNSw0MzIuODI4IDU1Mi41MDMsNDMyLjk5M0M1NTIuNjE4LDQzMy4wODggNTUyLjc0LDQzMy4xNTEgNTUyLjc0LDQzMy4yNkM1NTIuNzQsNDMzLjI2IDU1Mi43NCw0NDcuNzQgNTUyLjc0LDQ0Ny43NEM1NTIuNzQsNDQ3Ljg0OCA1NTIuNjE4LDQ0Ny45MDggNTUyLjUwNCw0NDguMDAyQzU1Mi4zMDUsNDQ4LjE2NyA1NTIuMDQzLDQ0OC4zMTcgNTUxLjczNCw0NDguNDU5QzU1MC4zMjgsNDQ5LjEwMSA1NDguMDU0LDQ0OS41IDU0NS40OSw0NDkuNUM1NDIuOTMyLDQ0OS41IDU0MC42NjEsNDQ5LjEwMSA1MzkuMjU2LDQ0OC40NTlDNTM4Ljk0Niw0NDguMzE3IDUzOC42ODUsNDQ4LjE2NyA1MzguNDg2LDQ0OC4wMDJDNTM4LjM3Miw0NDcuOTA4IDUzOC4yNSw0NDcuODQ4IDUzOC4yNSw0NDcuNzRDNTM4LjI1LDQ0Ny43NCA1MzguMjUsNDMzLjI2IDUzOC4yNSw0MzMuMjZaIiBzdHlsZT0iZmlsbDp3aGl0ZTsiLz4KICAgICAgICA8L2c+CiAgICAgICAgPHBhdGggZD0iTTUuNzc3LDE2LjIyNkw1Ljc3NywzMC43MDZDNS43NzcsMzEuNDM5IDYuMjA5LDMyLjIwMiA3LjE1NCwzMi44MTJDOC42MjksMzMuNzY1IDExLjU5MSwzNC40NjYgMTUuMDE3LDM0LjQ2NkMxOC40NDksMzQuNDY2IDIxLjQxMywzMy43NjUgMjIuODg5LDMyLjgxMkMyMy44MzQsMzIuMjAyIDI0LjI2NywzMS40MzkgMjQuMjY3LDMwLjcwNkwyNC4yNjcsMTYuMjI2QzI0LjI2NywxNS40ODggMjMuODM0LDE0LjcyNSAyMi44ODksMTQuMTE1QzIxLjQxNCwxMy4xNjIgMTguNDQ5LDEyLjQ2NiAxNS4wMTcsMTIuNDY2QzExLjU5MSwxMi40NjYgOC42MjksMTMuMTYyIDcuMTU0LDE0LjExNUM2LjIwOSwxNC43MjUgNS43NzcsMTUuNDg5IDUuNzc3LDE2LjIyNlpNMjIuMjY3LDI4LjQwMkMyMC42NjQsMjkuMTczIDE4LjAxOSwyOS43MDYgMTUuMDE3LDI5LjcwNkMxMi4wMjEsMjkuNzA2IDkuMzc5LDI5LjE3NCA3Ljc3NywyOC40MDJMNy43NzcsMzAuNzA2QzcuNzc3LDMwLjgxNCA3Ljg5OCwzMC44NzQgOC4wMTMsMzAuOTY4QzguMjEyLDMxLjEzMyA4LjQ3MywzMS4yODMgOC43ODIsMzEuNDI1QzEwLjE4NywzMi4wNjcgMTIuNDU5LDMyLjQ2NiAxNS4wMTcsMzIuNDY2QzE3LjU4MSwzMi40NjYgMTkuODU0LDMyLjA2NyAyMS4yNiwzMS40MjRDMjEuNTcsMzEuMjgzIDIxLjgzMiwzMS4xMzMgMjIuMDMxLDMwLjk2OEMyMi4xNDUsMzAuODc0IDIyLjI2NywzMC44MTQgMjIuMjY3LDMwLjcwNkwyMi4yNjcsMjguNDAyWk0yMi4yNjcsMjMuMjI4QzIwLjY2NCwyNCAxOC4wMTksMjQuNTM2IDE1LjAxNywyNC41MzZDMTIuMDIsMjQuNTM2IDkuMzc5LDI0IDcuNzc3LDIzLjIyOEw3Ljc3NywyNS45NDZDNy43NzcsMjYuMDU1IDcuODk4LDI2LjExNyA4LjAxMywyNi4yMTNDOC4yMTIsMjYuMzc3IDguNDczLDI2LjUyOCA4Ljc4MiwyNi42NjlDMTAuMTg3LDI3LjMxIDEyLjQ1OCwyNy43MDYgMTUuMDE3LDI3LjcwNkMxNy41ODEsMjcuNzA2IDE5Ljg1NSwyNy4zMSAyMS4yNjEsMjYuNjY5QzIxLjU3LDI2LjUyNyAyMS44MzEsMjYuMzc3IDIyLjAzLDI2LjIxM0MyMi4xNDUsMjYuMTE3IDIyLjI2NywyNi4wNTUgMjIuMjY3LDI1Ljk0NkwyMi4yNjcsMjMuMjI4Wk0yMi4yNjcsMTguNjc4QzIwLjY2NCwxOS40NSAxOC4wMTksMTkuOTg2IDE1LjAxNywxOS45ODZDMTIuMDIsMTkuOTg2IDkuMzc5LDE5LjQ1IDcuNzc3LDE4LjY3OEw3Ljc3NywyMC43NzZDNy43NzcsMjAuODg0IDcuODk4LDIwLjk0NCA4LjAxMywyMS4wMzhDOC4yMTIsMjEuMjAzIDguNDczLDIxLjM1MyA4Ljc4MiwyMS40OTVDMTAuMTg3LDIyLjEzNyAxMi40NTksMjIuNTM2IDE1LjAxNywyMi41MzZDMTcuNTgxLDIyLjUzNiAxOS44NTQsMjIuMTM3IDIxLjI2LDIxLjQ5NEMyMS41NywyMS4zNTMgMjEuODMyLDIxLjIwMyAyMi4wMzEsMjEuMDM4QzIyLjE0NSwyMC45NDQgMjIuMjY3LDIwLjg4NCAyMi4yNjcsMjAuNzc2TDIyLjI2NywxOC42NzhaTTIyLjI2NiwxNi4yMTZDMjIuMjU5LDE2LjExMyAyMi4xNDEsMTYuMDUxIDIyLjAzLDE1Ljk1OUMyMS44MzEsMTUuNzk0IDIxLjU3LDE1LjY0NCAyMS4yNjEsMTUuNTAzQzE5Ljg1NSwxNC44NjEgMTcuNTgxLDE0LjQ2NiAxNS4wMTcsMTQuNDY2QzEyLjQ1OCwxNC40NjYgMTAuMTg3LDE0Ljg2MSA4Ljc4MiwxNS41MDNDOC40NzMsMTUuNjQ0IDguMjEyLDE1Ljc5NCA4LjAxMywxNS45NTlDNy44OTgsMTYuMDU0IDcuNzc3LDE2LjExNiA3Ljc3NywxNi4yMjZMNy43NzcsMTYuMjM2QzcuNzg0LDE2LjMzNyA3LjkwMiwxNi4zOTcgOC4wMTMsMTYuNDg4QzguMjEyLDE2LjY1MyA4LjQ3MywxNi44MDMgOC43ODIsMTYuOTQ1QzEwLjE4NywxNy41ODcgMTIuNDU5LDE3Ljk4NiAxNS4wMTcsMTcuOTg2QzE3LjU4MSwxNy45ODYgMTkuODU0LDE3LjU4NyAyMS4yNiwxNi45NDRDMjEuNTcsMTYuODAzIDIxLjgzMiwxNi42NTMgMjIuMDMxLDE2LjQ4OEMyMi4xNDUsMTYuMzk0IDIyLjI2NywxNi4zMzQgMjIuMjY3LDE2LjIyNkwyMi4yNjYsMTYuMjE2WiIgc3R5bGU9ImZpbGw6cmdiKDE5MSwxNTQsNjQpOyIvPgogICAgPC9nPgo8L3N2Zz4K;aspect=fixed;labelPosition=center;verticalLabelPosition=bottom;align=center;verticalAlign=top;labelBackgroundColor=none;" parent="1" vertex="1">
          <mxGeometry x="570" y="280" width="30" height="40" as="geometry" />
        </mxCell>
        <mxCell id="i5078P6cimb0io9gRPc_-11" value="Template" style="shape=image;image=data:image/svg+xml,PD94bWwgdmVyc2lvbj0iMS4wIiBlbmNvZGluZz0iVVRGLTgiIHN0YW5kYWxvbmU9Im5vIj8+CjwhRE9DVFlQRSBzdmcgUFVCTElDICItLy9XM0MvL0RURCBTVkcgMS4xLy9FTiIgImh0dHA6Ly93d3cudzMub3JnL0dyYXBoaWNzL1NWRy8xLjEvRFREL3N2ZzExLmR0ZCI+Cjxzdmcgd2lkdGg9IjEwMCUiIGhlaWdodD0iMTAwJSIgdmlld0JveD0iMCAwIDMwIDQwIiB2ZXJzaW9uPSIxLjEiIHhtbG5zPSJodHRwOi8vd3d3LnczLm9yZy8yMDAwL3N2ZyIgeG1sbnM6eGxpbms9Imh0dHA6Ly93d3cudzMub3JnLzE5OTkveGxpbmsiIHhtbDpzcGFjZT0icHJlc2VydmUiIHhtbG5zOnNlcmlmPSJodHRwOi8vd3d3LnNlcmlmLmNvbS8iIHN0eWxlPSJmaWxsLXJ1bGU6ZXZlbm9kZDtjbGlwLXJ1bGU6ZXZlbm9kZDtzdHJva2UtbGluZWpvaW46cm91bmQ7c3Ryb2tlLW1pdGVybGltaXQ6MjsiPgogICAgPHBhdGggZD0iTTMwLDQwTDAsNDBMMCwwTDIwLjgzOCwwTDMwLDkuMDZMMzAsNDBaIi8+CiAgICA8cGF0aCBkPSJNMS44NzUsMS44NzVMMS44NzUsMzguMTI1TDI4LjEyNSwzOC4xMjVMMjguMTI1LDkuODQyTDIwLjA2NywxLjg3NUwxLjg3NSwxLjg3NVoiIHN0eWxlPSJmaWxsOndoaXRlOyIvPgogICAgPGcgdHJhbnNmb3JtPSJtYXRyaXgoMS41MjYwOSwwLDAsMS41MjYwOSwtMTIuMzYsLTIuNjAzMTQpIj4KICAgICAgICA8cGF0aCBkPSJNMjAuMjEyLDEuNzA2TDIxLjc1NCwxLjcwNkwyNy43NTcsNy42NDJMMjcuNzU3LDkuMTIxTDIwLjIxMiw5LjEyMUwyMC4yMTIsMS43MDZaIi8+CiAgICA8L2c+CiAgICA8ZyB0cmFuc2Zvcm09Im1hdHJpeCgxLjUyNjA5LDAsMCwxLjUyNjA5LC0xMi4zNiwtMi42MDMxNCkiPgogICAgICAgIDxwYXRoIGQ9Ik0yMS40NDEsNy44OTNMMjYuMjYzLDcuODkzTDIxLjQ0MSwzLjEyNUwyMS40NDEsNy44OTNaIiBzdHlsZT0iZmlsbDpyZ2IoMjA4LDIwOCwyMDgpOyIvPgogICAgPC9nPgo8L3N2Zz4K;aspect=fixed;labelPosition=center;verticalLabelPosition=bottom;align=center;verticalAlign=top;labelBackgroundColor=none;" parent="1" vertex="1">
          <mxGeometry x="570" y="360" width="30" height="40" as="geometry" />
        </mxCell>
        <mxCell id="pMEqZnm5owFYtKUF8jfE-1" value="Composition" style="shape=image;image=data:image/svg+xml,PD94bWwgdmVyc2lvbj0iMS4wIiBlbmNvZGluZz0iVVRGLTgiIHN0YW5kYWxvbmU9Im5vIj8+CjwhRE9DVFlQRSBzdmcgUFVCTElDICItLy9XM0MvL0RURCBTVkcgMS4xLy9FTiIgImh0dHA6Ly93d3cudzMub3JnL0dyYXBoaWNzL1NWRy8xLjEvRFREL3N2ZzExLmR0ZCI+Cjxzdmcgd2lkdGg9IjEwMCUiIGhlaWdodD0iMTAwJSIgdmlld0JveD0iMCAwIDMwIDQwIiB2ZXJzaW9uPSIxLjEiIHhtbG5zPSJodHRwOi8vd3d3LnczLm9yZy8yMDAwL3N2ZyIgeG1sbnM6eGxpbms9Imh0dHA6Ly93d3cudzMub3JnLzE5OTkveGxpbmsiIHhtbDpzcGFjZT0icHJlc2VydmUiIHhtbG5zOnNlcmlmPSJodHRwOi8vd3d3LnNlcmlmLmNvbS8iIHN0eWxlPSJmaWxsLXJ1bGU6ZXZlbm9kZDtjbGlwLXJ1bGU6ZXZlbm9kZDtzdHJva2UtbGluZWpvaW46cm91bmQ7c3Ryb2tlLW1pdGVybGltaXQ6MjsiPgogICAgPHBhdGggZD0iTTMwLDQwTDAsNDBMMCwwTDIwLjgzOCwwTDMwLDkuMDZMMzAsNDBaIi8+CiAgICA8cGF0aCBkPSJNMS44NzUsMS44NzVMMS44NzUsMzguMTI1TDI4LjEyNSwzOC4xMjVMMjguMTI1LDkuODQyTDIwLjA2NywxLjg3NUwxLjg3NSwxLjg3NVoiIHN0eWxlPSJmaWxsOndoaXRlOyIvPgogICAgPGcgdHJhbnNmb3JtPSJtYXRyaXgoMS41MjYwOSwwLDAsMS41MjYwOSwtMTIuMzYsLTIuNjAzMTQpIj4KICAgICAgICA8cGF0aCBkPSJNMjAuMjEyLDEuNzA2TDIxLjc1NCwxLjcwNkwyNy43NTcsNy42NDJMMjcuNzU3LDkuMTIxTDIwLjIxMiw5LjEyMUwyMC4yMTIsMS43MDZaIi8+CiAgICA8L2c+CiAgICA8ZyB0cmFuc2Zvcm09Im1hdHJpeCgxLjUyNjA5LDAsMCwxLjUyNjA5LC0xMi4zNiwtMi42MDMxNCkiPgogICAgICAgIDxwYXRoIGQ9Ik0yMS40NDEsNy44OTNMMjYuMjYzLDcuODkzTDIxLjQ0MSwzLjEyNUwyMS40NDEsNy44OTNaIiBzdHlsZT0iZmlsbDpyZ2IoMjA4LDIwOCwyMDgpOyIvPgogICAgPC9nPgo8L3N2Zz4K;aspect=fixed;labelPosition=center;verticalLabelPosition=bottom;align=center;verticalAlign=top;labelBackgroundColor=none;" parent="1" vertex="1">
          <mxGeometry x="570" y="440" width="30" height="40" as="geometry" />
        </mxCell>
      </root>
    </mxGraphModel>
  </diagram>
</mxfile>
